<?xml version="1.0" encoding="UTF-8"?>
<svg xmlns="http://www.w3.org/2000/svg" width="180%" height="262">
   <g transform="translate(40,212)">
      <rect x="0" y="-262" width="2340" height="262" fill="white"/>
      <line x1="0"
            y1="-60"
            x2="2340"
            y2="-60"
            stroke="black"
            stroke-width="1"/>
      <text x="-20" y="-55" text-align="right">10</text>
      <line x1="0"
            y1="-120"
            x2="2340"
            y2="-120"
            stroke="black"
            stroke-width="1"/>
      <text x="-20" y="-115" text-align="right">20</text>
      <line x1="0"
            y1="0"
            x2="2340"
            y2="0"
            stroke="black"
            stroke-width="2"/>
      <line x1="0"
            y1="0"
            x2="0"
            y2="-162"
            stroke="black"
            stroke-width="2"/>
      <rect x="0" y="-162" height="162" width="30" fill="#d73027"/>
      <text x="15" y="20" text-anchor="middle">nature</text>
	  <text x="150" y="40" text-anchor="middle" font-size="16">Barış Manço</text>
      <text x="15" y="-167" text-anchor="middle">27</text>
      <rect x="60" y="-78" height="78" width="30" fill="#d73027"/>
      <text x="75" y="20" text-anchor="middle">family</text>
      <text x="75" y="-83" text-anchor="middle">13</text>
      <rect x="120" y="-66" height="66" width="30" fill="#d73027"/>
      <text x="135" y="20" text-anchor="middle">future</text>
      <text x="135" y="-71" text-anchor="middle">11</text>
      <rect x="180" y="-30" height="30" width="30" fill="#d73027"/>
      <text x="195" y="20" text-anchor="middle">friendship</text>
      <text x="195" y="-35" text-anchor="middle">5</text>
      <rect x="240" y="-30" height="30" width="30" fill="#d73027"/>
      <text x="255" y="20" text-anchor="middle">love</text>
      <text x="255" y="-35" text-anchor="middle">5</text>
      <rect x="300" y="-18" height="18" width="30" fill="#d73027"/>
      <text x="315" y="20" text-anchor="middle">past</text>
      <text x="315" y="-23" text-anchor="middle">3</text>
      <rect x="360" y="-54" height="54" width="30" fill="#fc8d59"/>
      <text x="375" y="20" text-anchor="middle">class</text>
      <text x="375" y="-59" text-anchor="middle">9</text>
      <rect x="420" y="-48" height="48" width="30" fill="#fc8d59"/>
      <text x="435" y="20" text-anchor="middle">family</text>
      <text x="435" y="-53" text-anchor="middle">8</text>
      <rect x="480" y="-36" height="36" width="30" fill="#fc8d59"/>
      <text x="495" y="20" text-anchor="middle">neglect</text>
      <text x="495" y="-41" text-anchor="middle">6</text>
      <rect x="540" y="-36" height="36" width="30" fill="#fc8d59"/>
      <text x="555" y="20" text-anchor="middle">poverty</text>
      <text x="555" y="-41" text-anchor="middle">6</text>
      <rect x="600" y="-30" height="30" width="30" fill="#fc8d59"/>
      <text x="615" y="20" text-anchor="middle">love</text>
      <text x="615" y="-35" text-anchor="middle">5</text>
      <rect x="660" y="-102" height="102" width="30" fill="#fc8d59"/>
      <text x="675" y="20" text-anchor="middle">nature</text>
      <text x="675" y="-107" text-anchor="middle">17</text>
      <rect x="720" y="-60" height="60" width="30" fill="#fee090"/>
      <text x="735" y="20" text-anchor="middle">family</text>
      <text x="735" y="-65" text-anchor="middle">10</text>
      <rect x="780" y="-36" height="36" width="30" fill="#fee090"/>
      <text x="795" y="20" text-anchor="middle">death</text>
      <text x="795" y="-41" text-anchor="middle">6</text>
      <rect x="840" y="-30" height="30" width="30" fill="#fee090"/>
      <text x="855" y="20" text-anchor="middle">love</text>
      <text x="855" y="-35" text-anchor="middle">5</text>
      <rect x="900" y="-24" height="24" width="30" fill="#fee090"/>
      <text x="915" y="20" text-anchor="middle">allah</text>
      <text x="915" y="-29" text-anchor="middle">4</text>
      <rect x="960" y="-18" height="18" width="30" fill="#fee090"/>
      <text x="975" y="20" text-anchor="middle">neglect</text>
      <text x="975" y="-23" text-anchor="middle">3</text>
      <rect x="1020" y="-102" height="102" width="30" fill="#e0f3f8"/>
      <text x="1035" y="20" text-anchor="middle">love</text>
      <text x="1035" y="-107" text-anchor="middle">17</text>
      <rect x="1080" y="-78" height="78" width="30" fill="#e0f3f8"/>
      <text x="1095" y="20" text-anchor="middle">friendship</text>
      <text x="1095" y="-83" text-anchor="middle">13</text>
      <rect x="1140" y="-18" height="18" width="30" fill="#e0f3f8"/>
      <text x="1155" y="20" text-anchor="middle">allah</text>
      <text x="1155" y="-23" text-anchor="middle">3</text>
      <rect x="1200" y="-18" height="18" width="30" fill="#e0f3f8"/>
      <text x="1215" y="20" text-anchor="middle">nationalism</text>
      <text x="1215" y="-23" text-anchor="middle">3</text>
      <rect x="1260" y="-18" height="18" width="30" fill="#e0f3f8"/>
      <text x="1275" y="20" text-anchor="middle">nature</text>
      <text x="1275" y="-23" text-anchor="middle">3</text>
      <rect x="1320" y="-114" height="114" width="30" fill="#91bfdb"/>
      <text x="1335" y="20" text-anchor="middle">family</text>
      <text x="1335" y="-119" text-anchor="middle">19</text>
      <rect x="1380" y="-72" height="72" width="30" fill="#91bfdb"/>
      <text x="1395" y="20" text-anchor="middle">love</text>
      <text x="1395" y="-77" text-anchor="middle">12</text>
      <rect x="1440" y="-48" height="48" width="30" fill="#91bfdb"/>
      <text x="1455" y="20" text-anchor="middle">friendship</text>
      <text x="1455" y="-53" text-anchor="middle">8</text>
      <rect x="1500" y="-36" height="36" width="30" fill="#91bfdb"/>
      <text x="1515" y="20" text-anchor="middle">death</text>
      <text x="1515" y="-41" text-anchor="middle">6</text>
      <rect x="1560" y="-24" height="24" width="30" fill="#91bfdb"/>
      <text x="1575" y="20" text-anchor="middle">poverty</text>
      <text x="1575" y="-29" text-anchor="middle">4</text>
      <rect x="1620" y="-18" height="18" width="30" fill="#91bfdb"/>
      <text x="1635" y="20" text-anchor="middle">aşık</text>
      <text x="1635" y="-23" text-anchor="middle">3</text>
      <rect x="1680" y="-18" height="18" width="30" fill="#91bfdb"/>
      <text x="1695" y="20" text-anchor="middle">nature</text>
      <text x="1695" y="-23" text-anchor="middle">3</text>
      <rect x="1740" y="-18" height="18" width="30" fill="#4575b4"/>
      <text x="1755" y="20" text-anchor="middle">neglect</text>
      <text x="1755" y="-23" text-anchor="middle">3</text>
      <rect x="1800" y="-90" height="90" width="30" fill="#4575b4"/>
      <text x="1815" y="20" text-anchor="middle">neglect</text>
      <text x="1815" y="-95" text-anchor="middle">15</text>
      <rect x="1860" y="-78" height="78" width="30" fill="#4575b4"/>
      <text x="1875" y="20" text-anchor="middle">class</text>
      <text x="1875" y="-83" text-anchor="middle">13</text>
      <rect x="1920" y="-78" height="78" width="30" fill="#4575b4"/>
      <text x="1935" y="20" text-anchor="middle">death</text>
      <text x="1935" y="-83" text-anchor="middle">13</text>
      <rect x="1980" y="-66" height="66" width="30" fill="#4575b4"/>
      <text x="1995" y="20" text-anchor="middle">love</text>
      <text x="1995" y="-71" text-anchor="middle">11</text>
      <rect x="2040" y="-48" height="48" width="30" fill="#4575b4"/>
      <text x="2055" y="20" text-anchor="middle">family</text>
      <text x="2055" y="-53" text-anchor="middle">8</text>
      <rect x="2100" y="-30" height="30" width="30" fill="#4575b4"/>
      <text x="2115" y="20" text-anchor="middle">friendship</text>
      <text x="2115" y="-35" text-anchor="middle">5</text>
      <rect x="2160" y="-30" height="30" width="30" fill="#4575b4"/>
      <text x="2175" y="20" text-anchor="middle">nature</text>
      <text x="2175" y="-35" text-anchor="middle">5</text>
      <rect x="2220" y="-30" height="30" width="30" fill="#4575b4"/>
      <text x="2235" y="20" text-anchor="middle">violence</text>
      <text x="2235" y="-35" text-anchor="middle">5</text>
      <rect x="2280" y="-24" height="24" width="30" fill="#4575b4"/>
      <text x="2295" y="20" text-anchor="middle">allah</text>
      <text x="2295" y="-29" text-anchor="middle">4</text>
   </g>
</svg>
