<?xml version="1.0" encoding="UTF-8"?>
<svg xmlns="http://www.w3.org/2000/svg" width="200%" height="235">
   <g transform="translate(40,185)">
      <rect x="0" y="-235" width="1560" height="235" fill="white"/>
      <line x1="0"
            y1="-50"
            x2="1560"
            y2="-50"
            stroke="black"
            stroke-width="1"/>
      <text x="-20" y="-45" text-align="right">10</text>
      <line x1="0"
            y1="-100"
            x2="1560"
            y2="-100"
            stroke="black"
            stroke-width="1"/>
      <text x="-20" y="-95" text-align="right">20</text>
      <line x1="0"
            y1="0"
            x2="1560"
            y2="0"
            stroke="black"
            stroke-width="2"/>
      <line x1="0"
            y1="0"
            x2="0"
            y2="-135"
            stroke="black"
            stroke-width="2"/>
      <rect x="0" y="-135" height="135" width="25" fill="blue"/>
      <text x="12.5" y="20" text-anchor="middle">nature</text>
      <text x="12.5" y="-140" text-anchor="middle">27</text>
      <rect x="40" y="-65" height="65" width="25" fill="blue"/>
      <text x="52.5" y="20" text-anchor="middle">family</text>
      <text x="52.5" y="-70" text-anchor="middle">13</text>
      <rect x="80" y="-55" height="55" width="25" fill="blue"/>
      <text x="92.5" y="20" text-anchor="middle">future</text>
      <text x="92.5" y="-60" text-anchor="middle">11</text>
      <rect x="120" y="-25" height="25" width="25" fill="blue"/>
      <text x="132.5" y="20" text-anchor="middle">friendship</text>
      <text x="132.5" y="-30" text-anchor="middle">5</text>
      <rect x="160" y="-25" height="25" width="25" fill="blue"/>
      <text x="172.5" y="20" text-anchor="middle">love</text>
      <text x="172.5" y="-30" text-anchor="middle">5</text>
      <rect x="200" y="-15" height="15" width="25" fill="blue"/>
      <text x="212.5" y="20" text-anchor="middle">past</text>
      <text x="212.5" y="-20" text-anchor="middle">3</text>
      <rect x="240" y="-45" height="45" width="25" fill="blue"/>
      <text x="252.5" y="20" text-anchor="middle">class</text>
      <text x="252.5" y="-50" text-anchor="middle">9</text>
      <rect x="280" y="-40" height="40" width="25" fill="blue"/>
      <text x="292.5" y="20" text-anchor="middle">family</text>
      <text x="292.5" y="-45" text-anchor="middle">8</text>
      <rect x="320" y="-30" height="30" width="25" fill="blue"/>
      <text x="332.5" y="20" text-anchor="middle">neglect</text>
      <text x="332.5" y="-35" text-anchor="middle">6</text>
      <rect x="360" y="-30" height="30" width="25" fill="blue"/>
      <text x="372.5" y="20" text-anchor="middle">poverty</text>
      <text x="372.5" y="-35" text-anchor="middle">6</text>
      <rect x="400" y="-25" height="25" width="25" fill="blue"/>
      <text x="412.5" y="20" text-anchor="middle">love</text>
      <text x="412.5" y="-30" text-anchor="middle">5</text>
      <rect x="440" y="-85" height="85" width="25" fill="blue"/>
      <text x="452.5" y="20" text-anchor="middle">nature</text>
      <text x="452.5" y="-90" text-anchor="middle">17</text>
      <rect x="480" y="-50" height="50" width="25" fill="blue"/>
      <text x="492.5" y="20" text-anchor="middle">family</text>
      <text x="492.5" y="-55" text-anchor="middle">10</text>
      <rect x="520" y="-30" height="30" width="25" fill="blue"/>
      <text x="532.5" y="20" text-anchor="middle">death</text>
      <text x="532.5" y="-35" text-anchor="middle">6</text>
      <rect x="560" y="-25" height="25" width="25" fill="blue"/>
      <text x="572.5" y="20" text-anchor="middle">love</text>
      <text x="572.5" y="-30" text-anchor="middle">5</text>
      <rect x="600" y="-20" height="20" width="25" fill="blue"/>
      <text x="612.5" y="20" text-anchor="middle">allah</text>
      <text x="612.5" y="-25" text-anchor="middle">4</text>
      <rect x="640" y="-15" height="15" width="25" fill="blue"/>
      <text x="652.5" y="20" text-anchor="middle">neglect</text>
      <text x="652.5" y="-20" text-anchor="middle">3</text>
      <rect x="680" y="-85" height="85" width="25" fill="blue"/>
      <text x="692.5" y="20" text-anchor="middle">love</text>
      <text x="692.5" y="-90" text-anchor="middle">17</text>
      <rect x="720" y="-65" height="65" width="25" fill="blue"/>
      <text x="732.5" y="20" text-anchor="middle">friendship</text>
      <text x="732.5" y="-70" text-anchor="middle">13</text>
      <rect x="760" y="-15" height="15" width="25" fill="blue"/>
      <text x="772.5" y="20" text-anchor="middle">allah</text>
      <text x="772.5" y="-20" text-anchor="middle">3</text>
      <rect x="800" y="-15" height="15" width="25" fill="blue"/>
      <text x="812.5" y="20" text-anchor="middle">nationalism</text>
      <text x="812.5" y="-20" text-anchor="middle">3</text>
      <rect x="840" y="-15" height="15" width="25" fill="blue"/>
      <text x="852.5" y="20" text-anchor="middle">nature</text>
      <text x="852.5" y="-20" text-anchor="middle">3</text>
      <rect x="880" y="-95" height="95" width="25" fill="blue"/>
      <text x="892.5" y="20" text-anchor="middle">family</text>
      <text x="892.5" y="-100" text-anchor="middle">19</text>
      <rect x="920" y="-60" height="60" width="25" fill="blue"/>
      <text x="932.5" y="20" text-anchor="middle">love</text>
      <text x="932.5" y="-65" text-anchor="middle">12</text>
      <rect x="960" y="-40" height="40" width="25" fill="blue"/>
      <text x="972.5" y="20" text-anchor="middle">friendship</text>
      <text x="972.5" y="-45" text-anchor="middle">8</text>
      <rect x="1000" y="-30" height="30" width="25" fill="blue"/>
      <text x="1012.5" y="20" text-anchor="middle">death</text>
      <text x="1012.5" y="-35" text-anchor="middle">6</text>
      <rect x="1040" y="-20" height="20" width="25" fill="blue"/>
      <text x="1052.5" y="20" text-anchor="middle">poverty</text>
      <text x="1052.5" y="-25" text-anchor="middle">4</text>
      <rect x="1080" y="-15" height="15" width="25" fill="blue"/>
      <text x="1092.5" y="20" text-anchor="middle">aşık</text>
      <text x="1092.5" y="-20" text-anchor="middle">3</text>
      <rect x="1120" y="-15" height="15" width="25" fill="blue"/>
      <text x="1132.5" y="20" text-anchor="middle">nature</text>
      <text x="1132.5" y="-20" text-anchor="middle">3</text>
      <rect x="1160" y="-15" height="15" width="25" fill="blue"/>
      <text x="1172.5" y="20" text-anchor="middle">neglect</text>
      <text x="1172.5" y="-20" text-anchor="middle">3</text>
      <rect x="1200" y="-75" height="75" width="25" fill="blue"/>
      <text x="1212.5" y="20" text-anchor="middle">neglect</text>
      <text x="1212.5" y="-80" text-anchor="middle">15</text>
      <rect x="1240" y="-65" height="65" width="25" fill="blue"/>
      <text x="1252.5" y="20" text-anchor="middle">class</text>
      <text x="1252.5" y="-70" text-anchor="middle">13</text>
      <rect x="1280" y="-65" height="65" width="25" fill="blue"/>
      <text x="1292.5" y="20" text-anchor="middle">death</text>
      <text x="1292.5" y="-70" text-anchor="middle">13</text>
      <rect x="1320" y="-55" height="55" width="25" fill="blue"/>
      <text x="1332.5" y="20" text-anchor="middle">love</text>
      <text x="1332.5" y="-60" text-anchor="middle">11</text>
      <rect x="1360" y="-40" height="40" width="25" fill="blue"/>
      <text x="1372.5" y="20" text-anchor="middle">family</text>
      <text x="1372.5" y="-45" text-anchor="middle">8</text>
      <rect x="1400" y="-25" height="25" width="25" fill="blue"/>
      <text x="1412.5" y="20" text-anchor="middle">friendship</text>
      <text x="1412.5" y="-30" text-anchor="middle">5</text>
      <rect x="1440" y="-25" height="25" width="25" fill="blue"/>
      <text x="1452.5" y="20" text-anchor="middle">nature</text>
      <text x="1452.5" y="-30" text-anchor="middle">5</text>
      <rect x="1480" y="-25" height="25" width="25" fill="blue"/>
      <text x="1492.5" y="20" text-anchor="middle">violence</text>
      <text x="1492.5" y="-30" text-anchor="middle">5</text>
      <rect x="1520" y="-20" height="20" width="25" fill="blue"/>
      <text x="1532.5" y="20" text-anchor="middle">allah</text>
      <text x="1532.5" y="-25" text-anchor="middle">4</text>
   </g>
</svg>
