<?xml version="1.0" encoding="UTF-8"?>
<svg xmlns="http://www.w3.org/2000/svg" width="180%" height="178">
   <g transform="translate(40,128)">
      <rect x="0" y="-178" width="3120" height="178" fill="white"/>
      <line x1="0"
            y1="-60"
            x2="3120"
            y2="-60"
            stroke="black"
            stroke-width="1"/>
      <text x="-20" y="-55" text-align="right">10</text>
      <line x1="0"
            y1="0"
            x2="3120"
            y2="0"
            stroke="black"
            stroke-width="2"/>
      <line x1="0"
            y1="0"
            x2="0"
            y2="-78"
            stroke="black"
            stroke-width="2"/>
      <rect x="0" y="-36" height="36" width="30" fill="purple"/>
      <text x="15" y="20" text-anchor="middle">bass</text>
      <text x="15" y="-41" text-anchor="middle">6</text>
      <rect x="60" y="-48" height="48" width="30" fill="purple"/>
      <text x="75" y="20" text-anchor="middle">guitar</text>
      <text x="75" y="-53" text-anchor="middle">8</text>
      <rect x="120" y="-12" height="12" width="30" fill="purple"/>
      <text x="135" y="20" text-anchor="middle">ney</text>
      <text x="135" y="-17" text-anchor="middle">2</text>
      <rect x="180" y="-18" height="18" width="30" fill="purple"/>
      <text x="195" y="20" text-anchor="middle">organ</text>
      <text x="195" y="-23" text-anchor="middle">3</text>
      <rect x="240" y="-12" height="12" width="30" fill="purple"/>
      <text x="255" y="20" text-anchor="middle">synth</text>
      <text x="255" y="-17" text-anchor="middle">2</text>
      <rect x="300" y="-6" height="6" width="30" fill="purple"/>
      <text x="315" y="20" text-anchor="middle">violin</text>
      <text x="315" y="-11" text-anchor="middle">1</text>
      <rect x="360" y="-48" height="48" width="30" fill="purple"/>
      <text x="375" y="20" text-anchor="middle">bağlama</text>
      <text x="375" y="-53" text-anchor="middle">8</text>
      <rect x="420" y="-78" height="78" width="30" fill="purple"/>
      <text x="435" y="20" text-anchor="middle">total</text>
      <text x="435" y="-83" text-anchor="middle">13</text>
      <rect x="480" y="-6" height="6" width="30" fill="purple"/>
      <text x="495" y="20" text-anchor="middle">bass</text>
      <text x="495" y="-11" text-anchor="middle">1</text>
      <rect x="540" y="-6" height="6" width="30" fill="purple"/>
      <text x="555" y="20" text-anchor="middle">cümbüs</text>
      <text x="555" y="-11" text-anchor="middle">1</text>
      <rect x="600" y="-12" height="12" width="30" fill="purple"/>
      <text x="615" y="20" text-anchor="middle">guitar</text>
      <text x="615" y="-17" text-anchor="middle">2</text>
      <rect x="660" y="-12" height="12" width="30" fill="purple"/>
      <text x="675" y="20" text-anchor="middle">kaval</text>
      <text x="675" y="-17" text-anchor="middle">2</text>
      <rect x="720" y="-18" height="18" width="30" fill="purple"/>
      <text x="735" y="20" text-anchor="middle">ney</text>
      <text x="735" y="-23" text-anchor="middle">3</text>
      <rect x="780" y="-12" height="12" width="30" fill="purple"/>
      <text x="795" y="20" text-anchor="middle">percussion</text>
      <text x="795" y="-17" text-anchor="middle">2</text>
      <rect x="840" y="-6" height="6" width="30" fill="purple"/>
      <text x="855" y="20" text-anchor="middle">quanun</text>
      <text x="855" y="-11" text-anchor="middle">1</text>
      <rect x="900" y="-6" height="6" width="30" fill="purple"/>
      <text x="915" y="20" text-anchor="middle">sound effects</text>
      <text x="915" y="-11" text-anchor="middle">1</text>
      <rect x="960" y="-48" height="48" width="30" fill="purple"/>
      <text x="975" y="20" text-anchor="middle">synth</text>
      <text x="975" y="-53" text-anchor="middle">8</text>
      <rect x="1020" y="-18" height="18" width="30" fill="purple"/>
      <text x="1035" y="20" text-anchor="middle">bağlama</text>
      <text x="1035" y="-23" text-anchor="middle">3</text>
      <rect x="1080" y="-48" height="48" width="30" fill="purple"/>
      <text x="1095" y="20" text-anchor="middle">total</text>
      <text x="1095" y="-53" text-anchor="middle">8</text>
      <rect x="1140" y="-24" height="24" width="30" fill="purple"/>
      <text x="1155" y="20" text-anchor="middle">bass</text>
      <text x="1155" y="-29" text-anchor="middle">4</text>
      <rect x="1200" y="-18" height="18" width="30" fill="purple"/>
      <text x="1215" y="20" text-anchor="middle">guitar</text>
      <text x="1215" y="-23" text-anchor="middle">3</text>
      <rect x="1260" y="-18" height="18" width="30" fill="purple"/>
      <text x="1275" y="20" text-anchor="middle">organ</text>
      <text x="1275" y="-23" text-anchor="middle">3</text>
      <rect x="1320" y="-36" height="36" width="30" fill="purple"/>
      <text x="1335" y="20" text-anchor="middle">percussion</text>
      <text x="1335" y="-41" text-anchor="middle">6</text>
      <rect x="1380" y="-12" height="12" width="30" fill="purple"/>
      <text x="1395" y="20" text-anchor="middle">sound effects</text>
      <text x="1395" y="-17" text-anchor="middle">2</text>
      <rect x="1440" y="-48" height="48" width="30" fill="purple"/>
      <text x="1455" y="20" text-anchor="middle">synth</text>
      <text x="1455" y="-53" text-anchor="middle">8</text>
      <rect x="1500" y="-6" height="6" width="30" fill="purple"/>
      <text x="1515" y="20" text-anchor="middle">bass</text>
      <text x="1515" y="-11" text-anchor="middle">1</text>
      <rect x="1560" y="-6" height="6" width="30" fill="purple"/>
      <text x="1575" y="20" text-anchor="middle">çığırtma</text>
      <text x="1575" y="-11" text-anchor="middle">1</text>
      <rect x="1620" y="-42" height="42" width="30" fill="purple"/>
      <text x="1635" y="20" text-anchor="middle">guitar</text>
      <text x="1635" y="-47" text-anchor="middle">7</text>
      <rect x="1680" y="-6" height="6" width="30" fill="purple"/>
      <text x="1695" y="20" text-anchor="middle">kaval</text>
      <text x="1695" y="-11" text-anchor="middle">1</text>
      <rect x="1740" y="-18" height="18" width="30" fill="purple"/>
      <text x="1755" y="20" text-anchor="middle">percussion</text>
      <text x="1755" y="-23" text-anchor="middle">3</text>
      <rect x="1800" y="-6" height="6" width="30" fill="purple"/>
      <text x="1815" y="20" text-anchor="middle">synth</text>
      <text x="1815" y="-11" text-anchor="middle">1</text>
      <rect x="1860" y="-6" height="6" width="30" fill="purple"/>
      <text x="1875" y="20" text-anchor="middle">trumpet</text>
      <text x="1875" y="-11" text-anchor="middle">1</text>
      <rect x="1920" y="-18" height="18" width="30" fill="purple"/>
      <text x="1935" y="20" text-anchor="middle">bağlama</text>
      <text x="1935" y="-23" text-anchor="middle">3</text>
      <rect x="1980" y="-48" height="48" width="30" fill="purple"/>
      <text x="1995" y="20" text-anchor="middle">total</text>
      <text x="1995" y="-53" text-anchor="middle">8</text>
      <rect x="2040" y="-6" height="6" width="30" fill="purple"/>
      <text x="2055" y="20" text-anchor="middle">bass</text>
      <text x="2055" y="-11" text-anchor="middle">1</text>
      <rect x="2100" y="-12" height="12" width="30" fill="purple"/>
      <text x="2115" y="20" text-anchor="middle">düdük</text>
      <text x="2115" y="-17" text-anchor="middle">2</text>
      <rect x="2160" y="-42" height="42" width="30" fill="purple"/>
      <text x="2175" y="20" text-anchor="middle">guitar</text>
      <text x="2175" y="-47" text-anchor="middle">7</text>
      <rect x="2220" y="-6" height="6" width="30" fill="purple"/>
      <text x="2235" y="20" text-anchor="middle">ney</text>
      <text x="2235" y="-11" text-anchor="middle">1</text>
      <rect x="2280" y="-6" height="6" width="30" fill="purple"/>
      <text x="2295" y="20" text-anchor="middle">organ</text>
      <text x="2295" y="-11" text-anchor="middle">1</text>
      <rect x="2340" y="-18" height="18" width="30" fill="purple"/>
      <text x="2355" y="20" text-anchor="middle">percussion</text>
      <text x="2355" y="-23" text-anchor="middle">3</text>
      <rect x="2400" y="-6" height="6" width="30" fill="purple"/>
      <text x="2415" y="20" text-anchor="middle">sound effects</text>
      <text x="2415" y="-11" text-anchor="middle">1</text>
      <rect x="2460" y="-18" height="18" width="30" fill="purple"/>
      <text x="2475" y="20" text-anchor="middle">bağlama</text>
      <text x="2475" y="-23" text-anchor="middle">3</text>
      <rect x="2520" y="-72" height="72" width="30" fill="purple"/>
      <text x="2535" y="20" text-anchor="middle">total</text>
      <text x="2535" y="-77" text-anchor="middle">12</text>
      <rect x="2580" y="-12" height="12" width="30" fill="purple"/>
      <text x="2595" y="20" text-anchor="middle">bass</text>
      <text x="2595" y="-17" text-anchor="middle">2</text>
      <rect x="2640" y="-30" height="30" width="30" fill="purple"/>
      <text x="2655" y="20" text-anchor="middle">guitar</text>
      <text x="2655" y="-35" text-anchor="middle">5</text>
      <rect x="2700" y="-12" height="12" width="30" fill="purple"/>
      <text x="2715" y="20" text-anchor="middle">kaval</text>
      <text x="2715" y="-17" text-anchor="middle">2</text>
      <rect x="2760" y="-6" height="6" width="30" fill="purple"/>
      <text x="2775" y="20" text-anchor="middle">kemençe</text>
      <text x="2775" y="-11" text-anchor="middle">1</text>
      <rect x="2820" y="-6" height="6" width="30" fill="purple"/>
      <text x="2835" y="20" text-anchor="middle">ney</text>
      <text x="2835" y="-11" text-anchor="middle">1</text>
      <rect x="2880" y="-6" height="6" width="30" fill="purple"/>
      <text x="2895" y="20" text-anchor="middle">percussion</text>
      <text x="2895" y="-11" text-anchor="middle">1</text>
      <rect x="2940" y="-6" height="6" width="30" fill="purple"/>
      <text x="2955" y="20" text-anchor="middle">sipsi</text>
      <text x="2955" y="-11" text-anchor="middle">1</text>
      <rect x="3000" y="-12" height="12" width="30" fill="purple"/>
      <text x="3015" y="20" text-anchor="middle">synth</text>
      <text x="3015" y="-17" text-anchor="middle">2</text>
      <rect x="3060" y="-36" height="36" width="30" fill="purple"/>
      <text x="3075" y="20" text-anchor="middle">bağlama</text>
      <text x="3075" y="-41" text-anchor="middle">6</text>
   </g>
</svg>
